<svg height='100px' width='100px'  fill="#ff3e66" xmlns="http://www.w3.org/2000/svg" xmlns:xlink="http://www.w3.org/1999/xlink" version="1.1" x="0px" y="0px" viewBox="256 346 100.1 100" enable-background="new 256 346 100.1 100" xml:space="preserve"><path d="M261,441c0.9,0,2.1,0,3,0c24.9,0,45-20.1,45-45s-20.1-45-45-45c-0.9,0-2.1,0-3,0 M289.5,411.1c0.9-3.9,1.2-7.8,1.5-12h12  c-0.3,4.2-1.2,8.1-3,12H289.5z M261,399v12 M261,417L261,417v17.7 M277.8,424.8c-2.1,3.3-4.5,5.9-6.9,7.8c-1.2,0.9-2.7,1.5-4.2,2.1  V417h14.7C280.4,419.7,279.3,422.4,277.8,424.8L277.8,424.8z M266.9,411.1V399h18c-0.3,4.2-0.6,8.1-1.5,12L266.9,411.1L266.9,411.1z   M299.9,381c1.5,3.9,2.7,7.8,3,12h-12c-0.3-4.2-0.6-8.1-1.5-12H299.9z M284.9,393h-18v-12h16.2C284.1,385,284.7,388.8,284.9,393z   M266.9,375v-17.7c1.5,0.3,2.7,1.2,4.2,2.1c2.4,1.8,4.8,4.5,6.9,7.8c1.5,2.4,2.7,4.8,3.6,7.8H266.9L266.9,375z M261,357.3V375   M261,381v12 M291.6,423.6c-3.3,3.3-6.9,5.7-10.7,7.5c3-3.9,5.4-8.7,7.2-14.1h9C295.4,419.4,293.7,421.5,291.6,423.6z M296.9,375h-9  c-1.8-5.4-4.2-10.2-7.2-14.1c3.9,1.8,7.5,4.5,10.7,7.5C293.7,370.6,295.4,372.7,296.9,375z"></path><polygon points="314.9,399 338.2,399 338.2,408.9 350.9,396.1 350.8,396 350.9,395.9 338.2,383.2 338.2,393 314.9,393 "></polygon></svg>